<svg xmlns="http://www.w3.org/2000/svg" width="32" height="32" viewBox="0 0 32 32">
  <defs>
    <linearGradient id="botGradient" x1="0%" y1="0%" x2="100%" y2="100%">
      <stop offset="0%" stop-color="#3B82F6"></stop>
      <stop offset="100%" stop-color="#1D4ED8"></stop>
    </linearGradient>
    <linearGradient id="connectGradient" x1="0%" y1="0%" x2="100%" y2="0%">
      <stop offset="0%" stop-color="#10B981"></stop>
      <stop offset="100%" stop-color="#059669"></stop>
    </linearGradient>
  </defs>
  
  <!-- Bot Head -->
  <rect x="8" y="6" width="16" height="14" rx="3" fill="url(#botGradient)" stroke="#1E40AF" stroke-width="1"/>
  
  <!-- Bot Eyes -->
  <circle cx="12" cy="12" r="2" fill="#FFFFFF"/>
  <circle cx="20" cy="12" r="2" fill="#FFFFFF"/>
  <circle cx="12" cy="12" r="1" fill="#1E40AF"/>
  <circle cx="20" cy="12" r="1" fill="#1E40AF"/>
  
  <!-- Bot Mouth -->
  <rect x="14" y="16" width="4" height="1.5" rx="0.75" fill="#FFFFFF"/>
  
  <!-- Bot Body -->
  <rect x="10" y="20" width="12" height="8" rx="2" fill="url(#botGradient)" stroke="#1E40AF" stroke-width="1"/>
  
  <!-- Bot Chest Panel -->
  <rect x="12" y="22" width="8" height="4" rx="1" fill="#FFFFFF" opacity="0.8"/>
  <rect x="13" y="23" width="6" height="1" rx="0.5" fill="#1E40AF" opacity="0.6"/>
  <rect x="13" y="24.5" width="4" height="1" rx="0.5" fill="#1E40AF" opacity="0.6"/>
  
  <!-- Connection Signal Lines -->
  <path d="M2 8 L6 8" stroke="url(#connectGradient)" stroke-width="2" stroke-linecap="round"/>
  <path d="M26 8 L30 8" stroke="url(#connectGradient)" stroke-width="2" stroke-linecap="round"/>
  <path d="M2 12 L5 12" stroke="url(#connectGradient)" stroke-width="1.5" stroke-linecap="round" opacity="0.7"/>
  <path d="M27 12 L30 12" stroke="url(#connectGradient)" stroke-width="1.5" stroke-linecap="round" opacity="0.7"/>
  <path d="M2 16 L4 16" stroke="url(#connectGradient)" stroke-width="1" stroke-linecap="round" opacity="0.5"/>
  <path d="M28 16 L30 16" stroke="url(#connectGradient)" stroke-width="1" stroke-linecap="round" opacity="0.5"/>
  
  <!-- Bot Antennas -->
  <circle cx="11" cy="4" r="1.5" fill="url(#connectGradient)"/>
  <path d="M11 6 L11 4" stroke="#1E40AF" stroke-width="1"/>
  <circle cx="21" cy="4" r="1.5" fill="url(#connectGradient)"/>
  <path d="M21 6 L21 4" stroke="#1E40AF" stroke-width="1"/>
</svg>